# xmcd
#
# Track frame offsets:
#  150
#  13354
#  26612
#  42343
#  55946
#  68307
#  77919
#  90696
#  106233
#  120031
#  133387
#  146363
#  160282
#  170297
#  184207
#  198862
#  211619
#  225826
#  238190
#  250160
#
# Disc length: 3521 seconds
#
# Revision: 2
# Processed by: cddbd v1.5.1PL2 Copyright (c) Steve Scherf et al.
# Submitted via: Collectorz.com_Music_Collector 6.9
#
DISCID=010dbf14
DTITLE=Billie Holiday - God Bless the Child
DYEAR=1900
DGENRE=Popular music
TTITLE0=God bless the child
TTITLE1=Lets do it
TTITLE2=I'll be seeing you
TTITLE3=All of me
TTITLE4=The very thought of you
TTITLE5=I'm gonna lock my heart and throw away the key
TTITLE6=Them there eyes
TTITLE7=I cover the waterfront
TTITLE8=Time on my hands
TTITLE9=You're just a no account
TTITLE10=You go to my head
TTITLE11=Strange fruit
TTITLE12=Trav'lin all alone
TTITLE13=I love my man
TTITLE14=Embraceable you
TTITLE15=Falling in love again
TTITLE16=As time goes by
TTITLE17=You're a lucky guy
TTITLE18=He's funny that way
TTITLE19=The man I love
EXTD=
EXTT0=
EXTT1=
EXTT2=
EXTT3=
EXTT4=
EXTT5=
EXTT6=
EXTT7=
EXTT8=
EXTT9=
EXTT10=
EXTT11=
EXTT12=
EXTT13=
EXTT14=
EXTT15=
EXTT16=
EXTT17=
EXTT18=
EXTT19=
PLAYORDER=
